<?xml version="1.0" encoding="iso-8859-1"?>
<!-- Generator: Adobe Illustrator 19.0.0, SVG Export Plug-In . SVG Version: 6.00 Build 0)  -->
<svg version="1.1" id="Layer_1" xmlns="http://www.w3.org/2000/svg" xmlns:xlink="http://www.w3.org/1999/xlink" x="0px" y="0px"
	 viewBox="0 0 511.28 511.28" style="enable-background:new 0 0 511.28 511.28;" xml:space="preserve">
<g>
	<g>
		<path d="M213.571,195.547h-17.664c-4.713,0-8.533,3.82-8.533,8.533s3.82,8.533,8.533,8.533h17.664
			c4.713,0,8.533-3.821,8.533-8.533S218.284,195.547,213.571,195.547z"/>
	</g>
</g>
<g>
	<g>
		<path d="M161.773,195.547c-4.713,0-8.533,3.82-8.533,8.533c-0.013,2.268,0.877,4.448,2.475,6.059
			c0.829,0.754,1.782,1.36,2.816,1.792c1.026,0.437,2.128,0.669,3.243,0.683c1.115-0.014,2.217-0.245,3.243-0.683
			c1.033-0.434,1.986-1.04,2.816-1.792c1.597-1.61,2.488-3.79,2.475-6.059C170.307,199.367,166.486,195.547,161.773,195.547z"/>
	</g>
</g>
<g>
	<g>
		<path d="M297.027,32.304C293.201,17.037,281.28,5.116,266.013,1.29c-22.857-5.729-46.031,8.157-51.759,31.014
			C121.837,65.072,50.84,204.08,50.84,304.688c-0.331,113.536,91.266,205.934,204.8,206.592
			c113.534-0.658,205.131-93.056,204.8-206.592C460.44,204.08,389.443,65.072,297.027,32.304z M255.64,492.422
			c-103.682,0-187.733-84.051-187.733-187.733c0-94.805,69.803-230.912,156.16-257.792c3.289-1.017,5.645-3.911,5.973-7.339
			c1.237-13.198,12.344-23.269,25.6-23.211c13.157,0.074,24.116,10.11,25.344,23.211c0.328,3.427,2.684,6.321,5.973,7.339
			c86.613,26.88,156.416,162.987,156.416,257.792C443.373,408.371,359.322,492.422,255.64,492.422z"/>
	</g>
</g>
<g>
	<g>
		<path d="M261.699,35.888c-0.42-0.386-0.877-0.729-1.365-1.024c-0.435-0.339-0.926-0.599-1.451-0.768
			c-0.509-0.257-1.057-0.43-1.621-0.512c-2.784-0.557-5.663,0.306-7.68,2.304c-1.597,1.61-2.488,3.791-2.475,6.059
			c-0.013,2.268,0.877,4.448,2.475,6.059c0.829,0.754,1.782,1.36,2.816,1.792c1.026,0.437,2.128,0.669,3.243,0.683
			c1.115-0.013,2.217-0.245,3.243-0.683c1.033-0.434,1.986-1.04,2.816-1.792c1.597-1.61,2.488-3.79,2.475-6.059
			C264.142,39.688,263.258,37.524,261.699,35.888z"/>
	</g>
</g>
<g>
	<g>
		<path d="M366.573,161.414H144.707c-14.138,0-25.6,11.461-25.6,25.6v153.6c0,14.138,11.461,25.6,25.6,25.6h221.867
			c14.138,0,25.6-11.462,25.6-25.6v-153.6C392.173,172.875,380.712,161.414,366.573,161.414z M375.107,340.614
			c0,4.713-3.82,8.533-8.533,8.533H144.707c-4.713,0-8.533-3.82-8.533-8.533v-153.6c0-4.713,3.82-8.533,8.533-8.533h221.867
			c4.713,0,8.533,3.82,8.533,8.533V340.614z"/>
	</g>
</g>
<g>
	<g>
		<path d="M170.307,391.814c-14.138,0-25.6,11.462-25.6,25.6s11.462,25.6,25.6,25.6s25.6-11.461,25.6-25.6
			S184.445,391.814,170.307,391.814z M170.307,425.947c-4.713,0-8.533-3.82-8.533-8.533s3.82-8.533,8.533-8.533
			s8.533,3.82,8.533,8.533S175.02,425.947,170.307,425.947z"/>
	</g>
</g>
<g>
	<g>
		<path d="M255.64,408.88c-18.851,0-34.133,15.282-34.133,34.133c0,18.851,15.282,34.133,34.133,34.133
			c18.851,0,34.133-15.282,34.133-34.133C289.773,424.162,274.492,408.88,255.64,408.88z M255.64,460.08
			c-9.426,0-17.067-7.641-17.067-17.067s7.641-17.067,17.067-17.067c9.426,0,17.067,7.641,17.067,17.067
			S265.066,460.08,255.64,460.08z"/>
	</g>
</g>
<g>
	<g>
		<path d="M340.974,391.814c-14.138,0-25.6,11.462-25.6,25.6s11.462,25.6,25.6,25.6c14.138,0,25.6-11.461,25.6-25.6
			S355.112,391.814,340.974,391.814z M340.974,425.947c-4.713,0-8.533-3.82-8.533-8.533s3.821-8.533,8.533-8.533
			s8.533,3.82,8.533,8.533S345.686,425.947,340.974,425.947z"/>
	</g>
</g>
<g>
	<g>
		<path d="M120.216,259.547l-27.307,47.701l-26.453-39.68l-14.165,9.472l34.133,51.2c1.57,2.384,4.228,3.825,7.083,3.84
			c3.061,0.012,5.894-1.616,7.424-4.267l34.133-59.733L120.216,259.547z"/>
	</g>
</g>
<g>
	<g>
		<path d="M444.483,259.547l-27.307,47.701l-26.453-39.68l-14.165,9.472l34.133,51.2c1.57,2.384,4.228,3.825,7.083,3.84
			c3.061,0.012,5.894-1.616,7.424-4.267l34.133-59.733L444.483,259.547z"/>
	</g>
</g>
<g>
	<g>
		<path d="M227.565,249.222c-0.83-0.752-1.783-1.358-2.816-1.792c-3.178-1.336-6.847-0.629-9.301,1.792
			c-1.597,1.61-2.488,3.79-2.475,6.059c0.013,1.115,0.245,2.217,0.683,3.243c0.434,1.033,1.04,1.986,1.792,2.816
			c0.812,0.777,1.768,1.386,2.816,1.792c1.026,0.437,2.128,0.669,3.243,0.683c4.713,0,8.533-3.82,8.533-8.533
			C230.009,253.021,229.125,250.857,227.565,249.222z"/>
	</g>
</g>
<g>
	<g>
		<path d="M297.624,252.038c-0.406-1.047-1.015-2.004-1.792-2.816c-0.42-0.386-0.877-0.729-1.365-1.024
			c-0.435-0.339-0.926-0.599-1.451-0.768c-0.509-0.257-1.057-0.43-1.621-0.512c-1.066-0.251-2.176-0.251-3.243,0
			c-0.565,0.082-1.112,0.255-1.621,0.512c-0.545,0.185-1.061,0.443-1.536,0.768l-1.28,1.024c-0.777,0.812-1.386,1.769-1.792,2.816
			c-0.481,1.012-0.715,2.123-0.683,3.243c0,4.713,3.82,8.533,8.533,8.533c2.268,0.013,4.448-0.877,6.059-2.475
			c0.752-0.831,1.358-1.783,1.792-2.816C298.537,256.458,298.537,254.103,297.624,252.038z"/>
	</g>
</g>
<g>
	<g>
		<path d="M289.773,280.88c-4.713,0-8.533,3.82-8.533,8.533c0,14.138-11.462,25.6-25.6,25.6c-14.138,0-25.6-11.461-25.6-25.6
			c0-4.713-3.82-8.533-8.533-8.533s-8.533,3.82-8.533,8.533c0,23.564,19.102,42.667,42.667,42.667s42.667-19.102,42.667-42.667
			C298.307,284.701,294.486,280.88,289.773,280.88z"/>
	</g>
</g>
<g>
</g>
<g>
</g>
<g>
</g>
<g>
</g>
<g>
</g>
<g>
</g>
<g>
</g>
<g>
</g>
<g>
</g>
<g>
</g>
<g>
</g>
<g>
</g>
<g>
</g>
<g>
</g>
<g>
</g>
</svg>
